<svg version="1.1" id="Layer_1" xmlns="http://www.w3.org/2000/svg" xmlns:xlink="http://www.w3.org/1999/xlink" x="0px" y="0px"
	 width="100%" viewBox="0 0 500 227" enable-background="new 0 0 500 227" xml:space="preserve">
<path fill="#FFFEFF" opacity="1.000000" stroke="none" 
	d="
M374.000000,228.000000 
	C249.376022,228.000000 125.252045,228.000000 1.064033,228.000000 
	C1.064033,152.402084 1.064033,76.804092 1.064033,1.103054 
	C167.666641,1.103054 334.333313,1.103054 500.978088,1.103054 
	C500.978088,76.747887 500.978088,152.373947 500.978088,228.000000 
	C458.804138,228.000000 416.652069,228.000000 374.000000,228.000000 
M421.217560,174.763840 
	C440.950562,132.325211 460.705231,89.896599 480.397675,47.439159 
	C484.175720,39.293541 481.866882,32.137608 474.690155,28.924204 
	C467.338104,25.632294 460.666687,28.451084 456.899445,36.524609 
	C447.423981,56.831329 437.928619,77.129204 428.585663,97.496857 
	C427.303345,100.292290 425.817139,101.438004 422.636292,101.403725 
	C406.973877,101.234940 391.306976,101.206055 375.645660,101.420891 
	C372.175812,101.468491 370.760254,100.177559 369.503235,97.167442 
	C360.810669,76.351860 351.985443,55.590870 343.037445,34.883812 
	C341.957489,32.384609 340.305878,29.771158 338.198730,28.143274 
	C331.243469,22.769962 321.901062,25.481228 317.926178,33.928242 
	C307.963013,55.101101 298.076050,76.310646 288.340759,97.588867 
	C287.018555,100.478828 285.461517,101.427979 282.357941,101.396584 
	C267.195190,101.243149 252.028214,101.202690 236.867020,101.420853 
	C233.387741,101.470917 231.998199,100.156097 230.775406,97.141991 
	C225.974472,85.308067 220.904160,73.583221 215.913696,61.826454 
	C211.571075,51.595963 207.358719,41.305943 202.788239,31.177866 
	C199.719604,24.377808 192.843582,21.946974 186.098343,24.757198 
	C179.254608,27.608450 176.286728,34.169273 178.920380,41.072395 
	C180.692932,45.718472 182.748001,50.256866 184.681122,54.841560 
	C191.112503,70.094574 197.545868,85.346748 204.132004,100.963257 
	C166.996262,100.963257 130.370850,100.963257 92.799431,100.963257 
	C94.964180,99.272812 96.347610,98.149292 97.774818,97.084450 
	C119.118782,81.159744 140.446274,65.212769 161.836136,49.349926 
	C165.992691,46.267422 168.656570,42.547287 168.385376,37.203335 
	C168.124756,32.067707 165.380341,28.318581 160.991287,26.104881 
	C155.870728,23.522242 150.980484,24.831402 146.514099,28.172091 
	C125.188026,44.123234 103.854492,60.064426 82.515549,75.998352 
	C76.609093,80.408752 70.674934,84.782051 64.013290,89.721169 
	C64.013290,70.143303 64.044807,51.685799 63.999123,33.228477 
	C63.978325,24.828007 58.873222,19.786585 50.663101,19.863056 
	C42.859734,19.935738 37.995632,25.042356 37.992809,33.342300 
	C37.974377,87.500580 37.973610,141.658859 37.995888,195.817139 
	C37.999317,204.151398 42.804558,209.125107 50.690472,209.159103 
	C59.018147,209.195007 63.981091,204.307770 64.000717,195.880173 
	C64.042236,178.049683 64.015205,160.219040 64.016258,142.388458 
	C64.016350,140.806488 64.016266,139.224518 64.016266,136.852310 
	C66.159203,138.482254 67.596909,139.532089 68.988014,140.640411 
	C93.731674,160.354156 118.468407,180.076614 143.209671,199.793365 
	C150.641357,205.715820 157.986237,205.568100 162.991516,199.410522 
	C168.240219,192.953476 166.899963,185.489883 159.490707,179.594421 
	C139.426193,163.629227 119.372948,147.649811 99.332108,131.654907 
	C98.135048,130.699509 97.086166,129.558456 95.480492,128.043533 
	C96.965652,127.845131 97.588882,127.689209 98.212151,127.688988 
	C136.206284,127.675728 174.200516,127.710999 212.194336,127.604439 
	C215.177826,127.596069 216.105865,129.051971 217.086395,131.385208 
	C226.148636,152.949036 235.381454,174.441422 244.387268,196.028580 
	C246.817413,201.853745 250.686523,205.500366 257.052643,205.521805 
	C263.543701,205.543686 268.274994,202.758347 271.152039,196.414871 
	C280.954620,174.801590 291.127808,153.356613 301.038025,131.791550 
	C302.371155,128.890518 303.868469,127.522232 307.336243,127.578033 
	C321.497070,127.805901 335.665375,127.791687 349.826904,127.586319 
	C353.213470,127.537216 354.751312,128.634399 356.039337,131.735947 
	C365.263947,153.948975 374.756073,176.050766 384.029175,198.243896 
	C386.409668,203.941055 390.532471,207.326950 396.505493,207.359924 
	C402.677002,207.394028 407.597870,204.719009 410.270477,198.512833 
	C413.617767,190.739975 417.395111,183.152298 421.217560,174.763840 
z"/>
<path fill="#B00DCD" opacity="1.000000" stroke="none" 
	d="
M421.102173,175.124268 
	C417.395111,183.152298 413.617767,190.739975 410.270477,198.512833 
	C407.597870,204.719009 402.677002,207.394028 396.505493,207.359924 
	C390.532471,207.326950 386.409668,203.941055 384.029175,198.243896 
	C374.756073,176.050766 365.263947,153.948975 356.039337,131.735947 
	C354.751312,128.634399 353.213470,127.537216 349.826904,127.586319 
	C335.665375,127.791687 321.497070,127.805901 307.336243,127.578033 
	C303.868469,127.522232 302.371155,128.890518 301.038025,131.791550 
	C291.127808,153.356613 280.954620,174.801590 271.152039,196.414871 
	C268.274994,202.758347 263.543701,205.543686 257.052643,205.521805 
	C250.686523,205.500366 246.817413,201.853745 244.387268,196.028580 
	C235.381454,174.441422 226.148636,152.949036 217.086395,131.385208 
	C216.105865,129.051971 215.177826,127.596069 212.194336,127.604439 
	C174.200516,127.710999 136.206284,127.675728 98.212151,127.688988 
	C97.588882,127.689209 96.965652,127.845131 95.480492,128.043533 
	C97.086166,129.558456 98.135048,130.699509 99.332108,131.654907 
	C119.372948,147.649811 139.426193,163.629227 159.490707,179.594421 
	C166.899963,185.489883 168.240219,192.953476 162.991516,199.410522 
	C157.986237,205.568100 150.641357,205.715820 143.209671,199.793365 
	C118.468407,180.076614 93.731674,160.354156 68.988014,140.640411 
	C67.596909,139.532089 66.159203,138.482254 64.016266,136.852310 
	C64.016266,139.224518 64.016350,140.806488 64.016258,142.388458 
	C64.015205,160.219040 64.042236,178.049683 64.000717,195.880173 
	C63.981091,204.307770 59.018147,209.195007 50.690472,209.159103 
	C42.804558,209.125107 37.999317,204.151398 37.995888,195.817139 
	C37.973610,141.658859 37.974377,87.500580 37.992809,33.342300 
	C37.995632,25.042356 42.859734,19.935738 50.663101,19.863056 
	C58.873222,19.786585 63.978325,24.828007 63.999123,33.228477 
	C64.044807,51.685799 64.013290,70.143303 64.013290,89.721169 
	C70.674934,84.782051 76.609093,80.408752 82.515549,75.998352 
	C103.854492,60.064426 125.188026,44.123234 146.514099,28.172091 
	C150.980484,24.831402 155.870728,23.522242 160.991287,26.104881 
	C165.380341,28.318581 168.124756,32.067707 168.385376,37.203335 
	C168.656570,42.547287 165.992691,46.267422 161.836136,49.349926 
	C140.446274,65.212769 119.118782,81.159744 97.774818,97.084450 
	C96.347610,98.149292 94.964180,99.272812 92.799431,100.963257 
	C130.370850,100.963257 166.996262,100.963257 204.132004,100.963257 
	C197.545868,85.346748 191.112503,70.094574 184.681122,54.841560 
	C182.748001,50.256866 180.692932,45.718472 178.920380,41.072395 
	C176.286728,34.169273 179.254608,27.608450 186.098343,24.757198 
	C192.843582,21.946974 199.719604,24.377808 202.788239,31.177866 
	C207.358719,41.305943 211.571075,51.595963 215.913696,61.826454 
	C220.904160,73.583221 225.974472,85.308067 230.775406,97.141991 
	C231.998199,100.156097 233.387741,101.470917 236.867020,101.420853 
	C252.028214,101.202690 267.195190,101.243149 282.357941,101.396584 
	C285.461517,101.427979 287.018555,100.478828 288.340759,97.588867 
	C298.076050,76.310646 307.963013,55.101101 317.926178,33.928242 
	C321.901062,25.481228 331.243469,22.769962 338.198730,28.143274 
	C340.305878,29.771158 341.957489,32.384609 343.037445,34.883812 
	C351.985443,55.590870 360.810669,76.351860 369.503235,97.167442 
	C370.760254,100.177559 372.175812,101.468491 375.645660,101.420891 
	C391.306976,101.206055 406.973877,101.234940 422.636292,101.403725 
	C425.817139,101.438004 427.303345,100.292290 428.585663,97.496857 
	C437.928619,77.129204 447.423981,56.831329 456.899445,36.524609 
	C460.666687,28.451084 467.338104,25.632294 474.690155,28.924204 
	C481.866882,32.137608 484.175720,39.293541 480.397675,47.439159 
	C460.705231,89.896599 440.950562,132.325211 421.102173,175.124268 
M388.187561,141.296173 
	C391.247498,148.422165 394.307434,155.548141 397.750275,163.565796 
	C403.430695,151.358276 408.775604,139.871811 414.341217,127.911072 
	C403.537445,127.911072 393.443695,127.911072 382.652740,127.911072 
	C384.544800,132.406952 386.260498,136.483688 388.187561,141.296173 
M259.828949,158.978409 
	C264.531677,148.735550 269.234406,138.492691 274.100555,127.893913 
	C263.631622,127.893913 254.034653,127.893913 243.869064,127.893913 
	C248.728790,139.355026 253.418762,150.415833 258.263611,161.841873 
	C258.870300,160.740860 259.189056,160.162415 259.828949,158.978409 
M336.532593,85.935745 
	C334.401672,80.973801 332.270752,76.011848 329.771240,70.191635 
	C324.797974,80.926651 320.256561,90.729485 315.545471,100.898560 
	C324.893585,100.898560 333.509003,100.898560 342.757233,100.898560 
	C340.635315,95.742577 338.758026,91.181000 336.532593,85.935745 
z"/>
<path fill="#FEFCFE" opacity="1.000000" stroke="none" 
	d="
M388.081879,140.928299 
	C386.260498,136.483688 384.544800,132.406952 382.652740,127.911072 
	C393.443695,127.911072 403.537445,127.911072 414.341217,127.911072 
	C408.775604,139.871811 403.430695,151.358276 397.750275,163.565796 
	C394.307434,155.548141 391.247498,148.422165 388.081879,140.928299 
z"/>
<path fill="#FEFBFE" opacity="1.000000" stroke="none" 
	d="
M259.668396,159.281189 
	C259.189056,160.162415 258.870300,160.740860 258.263611,161.841873 
	C253.418762,150.415833 248.728790,139.355026 243.869064,127.893913 
	C254.034653,127.893913 263.631622,127.893913 274.100555,127.893913 
	C269.234406,138.492691 264.531677,148.735550 259.668396,159.281189 
z"/>
<path fill="#FEFBFE" opacity="1.000000" stroke="none" 
	d="
M336.706665,86.277588 
	C338.758026,91.181000 340.635315,95.742577 342.757233,100.898560 
	C333.509003,100.898560 324.893585,100.898560 315.545471,100.898560 
	C320.256561,90.729485 324.797974,80.926651 329.771240,70.191635 
	C332.270752,76.011848 334.401672,80.973801 336.706665,86.277588 
z"/>
</svg>